# xmcd CD database file
#
# Track frame offsets:
#	150
#	20117
#	41413
#	67627
#	103482
#	133392
#	155717
#	191775
#	217571
#	238292
#	261217
#	286469
#
# Disc length: 4003 seconds
#
# Revision: 0
# Processed by: cddbd v1.5.1PL0 Copyright (c) Steve Scherf et al.
# Submitted via: CDex 1.60beta1
#
DISCID=b80fa10c
DTITLE=Armand and Bluesology - Everything I Need
DYEAR=1900
DGENRE=Country
TTITLE0=Everthing I Need
TTITLE1=Love Songs Are Lies
TTITLE2=Mike's Mood
TTITLE3=Cold Cold World
TTITLE4=I'll Play The Blues For You
TTITLE5=Armand's Attitude
TTITLE6=After Midnight
TTITLE7=Pickin' Cotton
TTITLE8=What's Goin' On
TTITLE9=Something's Fishy
TTITLE10=Dance Hobo Dance
TTITLE11=Makin' Love
EXTD=
EXTT0=
EXTT1=
EXTT2=
EXTT3=
EXTT4=
EXTT5=
EXTT6=
EXTT7=
EXTT8=
EXTT9=
EXTT10=
EXTT11=
PLAYORDER=
